<?xml version="1.0" encoding="UTF-8"?>
<svg id="Layer_2" data-name="Layer 2" xmlns="http://www.w3.org/2000/svg" viewBox="0 0 173.19 40.61">
  <defs>
    <style>
      .cls-1 {
        fill: #fff;
      }
    </style>
  </defs>
  <g id="Layer_1-2" data-name="Layer 1">
    <g>
      <path class="cls-1" d="M4,10.17h.67c2.21,0,4,1.79,4,4v23.99c0,1.1-.9,2-2,2H2c-1.1,0-2-.9-2-2V14.17c0-2.21,1.79-4,4-4Z"/>
      <path class="cls-1" d="M39.87,25.66v12.51c0,1.1-.9,2-2,2h-4.67c-1.1,0-2-.9-2-2v-12.51c0-4.95-3.01-6.81-5.66-6.81s-5.57,1.86-5.57,6.81v12.51c0,1.1-.9,2-2,2h-4.67c-1.1,0-2-.9-2-2v-12.51c0-8.32,5.57-15.39,14.24-15.39s14.33,6.99,14.33,15.39Z"/>
      <path class="cls-1" d="M52.29,18.54v.04h5.7c1.1,0,2,.9,2,2v4.58c0,1.1-.9,2-2,2h-5.7v11c0,1.1-.9,2-2,2h-4.58c-1.1,0-2-.9-2-2v-11h-.3c-1.1,0-2-.9-2-2v-4.58c0-1.1.9-2,2-2h.3v-.26c0-8.85,7.17-16.01,16.01-16.01,1.78,0,3.55.3,5.21.86,1.16.4,1.7,1.74,1.13,2.83l-2.16,4.12c-.43.82-1.37,1.23-2.27,1-.54-.14-1.1-.21-1.69-.23-4.22-.11-7.65,3.43-7.65,7.65Z"/>
      <path class="cls-1" d="M91.84,25.39c0,8.4-6.81,15.22-15.22,15.22s-15.22-6.81-15.22-15.22,6.81-15.22,15.22-15.22,15.22,6.81,15.22,15.22ZM83.17,25.39c0-3.63-2.92-6.55-6.55-6.55s-6.55,2.92-6.55,6.55,2.92,6.55,6.55,6.55,6.55-2.92,6.55-6.55Z"/>
      <path class="cls-1" d="M145.45,23.41c1.25,9.95-7.12,18.32-17.07,17.07-6.78-.85-12.26-6.33-13.11-13.11-1.25-9.95,7.12-18.32,17.07-17.07,6.78.85,12.26,6.33,13.11,13.11ZM136.85,26.24c.53-4.29-3.05-7.87-7.34-7.34-2.91.36-5.29,2.74-5.65,5.65-.53,4.29,3.05,7.87,7.34,7.34,2.91-.36,5.29-2.74,5.65-5.65Z"/>
      <path class="cls-1" d="M173.19,40.16h-8.67c0-7.25-1.95-9.29-5.31-10.88-3.27,1.59-5.22,3.63-5.22,10.88h-8.67c0-5.93,1.06-11.24,5.4-15.57-.53-.44-.97-.88-1.5-1.42-2.24-2.7-3.53-6.27-3.83-10.9-.07-1.14.85-2.11,2-2.11h4.65c1.06,0,1.94.84,1.99,1.9.19,3.94,1.17,5.74,5.18,7.74,3.93-2,5.04-3.87,5.26-7.76.06-1.05.94-1.88,1.99-1.88h4.66c1.15,0,2.08.96,2,2.11-.31,4.68-1.72,9.24-5.42,12.31,4.33,4.33,5.49,9.64,5.49,15.57Z"/>
      <path class="cls-1" d="M123.74,23.92c.86,9.07-6.35,16.69-15.15,16.69-8.14,0-14.77-6.37-15.22-14.42V2.62c0-1.1.9-2,2-2h4.67c1.1,0,2,.9,2,2v9.06c1.71-.85,3.63-1.37,5.69-1.48,8.05-.44,15.24,5.69,16.01,13.72ZM115.14,25.39c0-3.66-2.97-6.59-6.63-6.55s-6.42,2.98-6.46,6.46c-.05,3.67,2.89,6.63,6.55,6.63s6.55-2.83,6.55-6.55Z"/>
      <path class="cls-1" d="M.24,5.51C-.63,2.22,2.31-.72,5.6.16c1.45.38,2.62,1.55,3,3,.88,3.29-2.06,6.23-5.36,5.36-1.45-.38-2.62-1.55-3-3Z"/>
    </g>
  </g>
</svg>