<?xml version="1.0" encoding="UTF-8"?>
<svg id="Ebene_1" xmlns="http://www.w3.org/2000/svg" version="1.1" viewBox="0 0 356.2 66">
  <!-- Generator: Adobe Illustrator 30.1.0, SVG Export Plug-In . SVG Version: 2.1.1 Build 136)  -->
  <defs>
    <style>
      .st0 {
        fill: #a3195b;
      }

      .st1 {
        fill: #e6332a;
      }
    </style>
  </defs>
  <path class="st1" d="M9.6,49.1v-7.5h15.1c.4,0,.8,0,1.1-.3.3-.2.6-.4.8-.8.2-.3.3-.7.3-1s-.1-.8-.3-1.1c-.2-.3-.5-.6-.8-.8-.3-.2-.7-.3-1.1-.3h-5.5c-2,0-3.9-.3-5.5-1-1.6-.7-2.9-1.7-3.9-3.2-1-1.4-1.4-3.3-1.4-5.6s.4-3.4,1.3-4.9c.9-1.5,2.1-2.6,3.6-3.5,1.5-.9,3.2-1.3,5-1.3h15.1v7.6h-13.6c-.6,0-1,.2-1.4.5-.4.4-.6.8-.6,1.3s.2,1,.6,1.4c.4.4.9.6,1.4.6h5.4c2.3,0,4.2.3,5.9,1s2.9,1.7,3.8,3.2c.9,1.5,1.4,3.4,1.4,5.7s-.5,3.5-1.4,5c-.9,1.5-2.1,2.7-3.7,3.6-1.5.9-3.2,1.3-5.2,1.3H9.6Z"/>
  <path class="st1" d="M43.3,14.3c-1.5,0-2.8-.5-3.9-1.6s-1.6-2.4-1.6-3.9.5-2.8,1.6-3.9c1.1-1.1,2.4-1.7,3.9-1.7s2.8.6,3.9,1.7c1.1,1.1,1.6,2.4,1.6,3.9s-.5,2.8-1.6,3.9c-1.1,1.1-2.4,1.6-3.9,1.6ZM38.6,49.1v-31.3h9.5v31.3h-9.5Z"/>
  <path class="st1" d="M56.5,61.5v-8.1h15.6c.6,0,1.1-.2,1.5-.6.4-.4.6-.9.6-1.4v-6.9h-.2c-.8.9-1.7,1.7-2.6,2.4-.9.7-1.9,1.1-3,1.5-1.1.3-2.4.5-3.8.5-2.8,0-5.2-.7-7.4-2-2.2-1.3-3.9-3.2-5.1-5.5-1.2-2.4-1.9-5-1.9-8.1s.6-5.7,1.9-8.1c1.3-2.4,3.2-4.4,5.6-5.9,2.5-1.5,5.5-2.2,9.1-2.2s6.4.7,8.9,2.1c2.5,1.4,4.4,3.4,5.8,5.9,1.4,2.5,2.1,5.5,2.1,8.9v18.3c0,2.8-.8,5-2.5,6.7-1.6,1.6-3.9,2.5-6.8,2.5h-17.9ZM67,40.9c1.5,0,2.7-.3,3.8-1,1.1-.7,1.9-1.6,2.4-2.7.6-1.1.9-2.4.9-3.8s-.3-2.8-.9-4c-.6-1.2-1.4-2.2-2.4-2.9-1.1-.7-2.3-1.1-3.8-1.1s-2.7.3-3.8,1c-1.1.7-1.9,1.6-2.5,2.8-.6,1.2-.9,2.5-.9,4s.3,2.7.9,3.9c.6,1.2,1.4,2.1,2.5,2.8,1.1.7,2.3,1,3.8,1Z"/>
  <path class="st1" d="M87.3,49.1v-18c0-2.6.6-5,1.9-7.1,1.3-2.1,3.1-3.8,5.4-5.1,2.3-1.3,5.1-1.9,8.3-1.9s6,.6,8.3,1.9c2.3,1.3,4.1,2.9,5.3,5.1,1.2,2.1,1.8,4.5,1.8,7.1v18h-9.5v-17.8c0-1.1-.3-2.1-.8-3-.5-.9-1.3-1.6-2.2-2.2-.9-.5-1.9-.8-3.1-.8s-2.2.3-3.1.8c-.9.5-1.6,1.3-2.2,2.2-.5.9-.8,1.9-.8,3v17.8h-9.5Z"/>
  <path class="st1" d="M134.7,49.9c-2.8,0-5.2-.7-7.3-2.1-2.1-1.4-3.8-3.3-4.9-5.8-1.2-2.4-1.8-5.2-1.8-8.2s.7-6,2.1-8.5c1.4-2.5,3.3-4.5,5.9-5.9,2.5-1.5,5.5-2.2,9-2.2s6.5.7,8.9,2.2c2.5,1.4,4.4,3.4,5.7,5.9,1.3,2.5,2,5.3,2,8.4v15.6h-9.3v-5h-.2c-.6,1.1-1.3,2.1-2.2,3-.9.9-2,1.6-3.3,2-1.3.5-2.8.7-4.5.7ZM137.5,41.7c1.4,0,2.7-.4,3.8-1.1,1.1-.7,1.9-1.7,2.5-3,.6-1.3.9-2.7.9-4.2s-.3-2.9-.9-4.1c-.6-1.2-1.4-2.2-2.5-2.9-1.1-.7-2.3-1.1-3.8-1.1s-2.7.4-3.8,1.1c-1.1.7-1.9,1.7-2.5,2.9-.6,1.2-.9,2.6-.9,4.1s.3,2.9.9,4.2c.6,1.3,1.4,2.2,2.5,3,1.1.7,2.4,1.1,3.8,1.1Z"/>
  <path class="st1" d="M162.7,61.5v-8.1h15.6c.6,0,1.1-.2,1.5-.6.4-.4.6-.9.6-1.4v-6.9h-.2c-.8.9-1.7,1.7-2.6,2.4-.9.7-1.9,1.1-3,1.5-1.1.3-2.4.5-3.8.5-2.8,0-5.2-.7-7.4-2-2.2-1.3-3.9-3.2-5.1-5.5-1.2-2.4-1.9-5-1.9-8.1s.6-5.7,1.9-8.1c1.3-2.4,3.2-4.4,5.6-5.9,2.5-1.5,5.5-2.2,9.1-2.2s6.4.7,8.9,2.1c2.5,1.4,4.4,3.4,5.8,5.9,1.4,2.5,2.1,5.5,2.1,8.9v18.3c0,2.8-.8,5-2.5,6.7-1.6,1.6-3.9,2.5-6.8,2.5h-17.9ZM173.2,40.9c1.5,0,2.7-.3,3.8-1,1.1-.7,1.9-1.6,2.4-2.7.6-1.1.9-2.4.9-3.8s-.3-2.8-.9-4c-.6-1.2-1.4-2.2-2.4-2.9-1.1-.7-2.3-1.1-3.8-1.1s-2.7.3-3.8,1c-1.1.7-1.9,1.6-2.5,2.8-.6,1.2-.9,2.5-.9,4s.3,2.7.9,3.9c.6,1.2,1.4,2.1,2.5,2.8,1.1.7,2.3,1,3.8,1Z"/>
  <path class="st1" d="M209.7,49.1c-3.5,0-6.6-.7-9.3-2-2.7-1.3-4.8-3.2-6.3-5.5-1.5-2.3-2.2-5.1-2.2-8.1s.7-6.3,2.1-8.8c1.4-2.4,3.3-4.3,5.7-5.6,2.4-1.3,5-2,7.9-2s6,.7,8.3,2.1c2.2,1.4,3.9,3.3,5,5.6,1.1,2.4,1.7,5.1,1.7,8.1s0,1.1,0,1.9c0,.7-.1,1.3-.2,1.7h-20.5c.2,1.1.7,2,1.4,2.7.7.7,1.6,1.3,2.6,1.6,1.1.3,2.2.5,3.5.5h9.6v7.8h-9.3ZM201.6,30.6h11.9c0-.6-.2-1.3-.4-1.9-.2-.6-.4-1.1-.8-1.6-.3-.5-.7-.9-1.2-1.2-.4-.3-1-.6-1.6-.8-.6-.2-1.3-.3-2-.3s-1.8.2-2.5.5c-.7.3-1.3.8-1.8,1.3-.5.5-.9,1.2-1.1,1.9-.3.7-.5,1.4-.6,2.2Z"/>
  <path class="st0" d="M224.9,49.1v-18c0-2.6.6-5,1.9-7.1,1.3-2.1,3.1-3.8,5.4-5.1,2.3-1.3,5.1-1.9,8.3-1.9s6,.6,8.3,1.9c2.3,1.3,4.1,2.9,5.3,5.1,1.2,2.1,1.8,4.5,1.8,7.1v18h-9.5v-17.8c0-1.1-.3-2.1-.8-3-.5-.9-1.3-1.6-2.2-2.2-.9-.5-1.9-.8-3.1-.8s-2.2.3-3.1.8c-.9.5-1.6,1.3-2.2,2.2-.5.9-.8,1.9-.8,3v17.8h-9.5Z"/>
  <path class="st0" d="M275.2,49.9c-3.2,0-6.1-.7-8.7-2.1-2.6-1.4-4.6-3.4-6.1-5.9-1.5-2.5-2.2-5.3-2.2-8.4s.7-5.9,2.2-8.4c1.5-2.5,3.5-4.4,6.1-5.9,2.6-1.4,5.4-2.2,8.7-2.2s6.1.7,8.6,2.2c2.5,1.4,4.6,3.4,6,5.9,1.5,2.5,2.2,5.3,2.2,8.4s-.7,5.9-2.2,8.4c-1.5,2.5-3.5,4.4-6.1,5.9-2.6,1.4-5.4,2.1-8.6,2.1ZM275.2,41.6c1.5,0,2.8-.4,3.9-1.1,1.1-.7,2-1.7,2.6-2.9.6-1.2.9-2.6.9-4.1s-.3-2.9-.9-4.1c-.6-1.2-1.5-2.2-2.6-2.9-1.1-.7-2.4-1.1-3.9-1.1s-2.8.4-3.9,1.1c-1.1.7-2,1.7-2.6,2.9-.6,1.2-.9,2.6-.9,4.1s.3,2.9.9,4.1c.6,1.2,1.5,2.2,2.6,2.9,1.1.7,2.4,1.1,3.9,1.1Z"/>
  <path class="st0" d="M306.6,49.9c-2.2,0-4.2-.4-6-1.3-1.9-.9-3.3-2.2-4.5-3.9-1.1-1.7-1.7-3.9-1.7-6.6v-20.3h9.5v21.5c0,.5.1.9.4,1.3.2.4.6.7,1,1,.4.2.9.4,1.3.4s.9-.1,1.3-.4.7-.6,1-1c.2-.4.4-.9.4-1.3v-10.4c0-2.5.5-4.7,1.6-6.4,1.1-1.7,2.5-3.1,4.4-4,1.8-.9,3.9-1.4,6.3-1.4s4.4.5,6.2,1.4,3.3,2.2,4.3,4c1.1,1.7,1.6,3.9,1.6,6.4v10.4c0,.5.1.9.4,1.3.2.4.6.7,1,1s.9.4,1.4.4.9-.1,1.3-.4c.4-.2.7-.6,1-1,.2-.4.4-.9.4-1.3v-21.5h9.5v20.3c0,2.6-.6,4.8-1.7,6.6-1.1,1.7-2.6,3.1-4.5,3.9s-3.9,1.3-6,1.3-4.2-.4-6-1.3c-1.9-.9-3.3-2.2-4.5-3.9-1.1-1.7-1.7-3.9-1.7-6.6v-10.4c0-.5-.1-1-.4-1.4-.2-.4-.6-.7-1-1-.4-.2-.9-.4-1.3-.4s-.9.1-1.4.4-.8.6-1,1c-.2.4-.4.9-.4,1.4v10.4c0,2.6-.6,4.8-1.7,6.6-1.1,1.7-2.6,3.1-4.5,3.9-1.9.9-3.9,1.3-6,1.3Z"/>
</svg>